<?xml version="1.0" encoding="UTF-8" standalone="no"?>
<!-- Created with Inkscape (http://www.inkscape.org/) -->

<svg
   xmlns:dc="http://purl.org/dc/elements/1.1/"
   xmlns:cc="http://creativecommons.org/ns#"
   xmlns:rdf="http://www.w3.org/1999/02/22-rdf-syntax-ns#"
   xmlns:svg="http://www.w3.org/2000/svg"
   xmlns="http://www.w3.org/2000/svg"
   xmlns:sodipodi="http://sodipodi.sourceforge.net/DTD/sodipodi-0.dtd"
   xmlns:inkscape="http://www.inkscape.org/namespaces/inkscape"
   width="700"
   height="200"
   id="svg2"
   version="1.1"
   inkscape:version="0.48.4 r9939"
   sodipodi:docname="title_zh-CN.svg"
   inkscape:export-filename="/home/lastleaf/programs/tomorrow/src/data/image/title_zh-CN.png"
   inkscape:export-xdpi="90"
   inkscape:export-ydpi="90">
  <defs
     id="defs4">
    <filter
       id="filter4283"
       inkscape:label="Glow"
       inkscape:menu="Shadows and Glows"
       inkscape:menu-tooltip="Glow of object's own color at the edges"
       x="-0.050000001"
       y="-0.050000001"
       width="1.1"
       height="1.1"
       color-interpolation-filters="sRGB">
      <feGaussianBlur
         id="feGaussianBlur4285"
         stdDeviation="5"
         result="result1" />
      <feComposite
         id="feComposite4287"
         in2="result1"
         in="result1"
         result="result4"
         operator="xor" />
      <feGaussianBlur
         id="feGaussianBlur4289"
         stdDeviation="8"
         result="result6" />
      <feComposite
         id="feComposite4291"
         in2="SourceGraphic"
         operator="atop"
         in="result6"
         result="result8" />
      <feComposite
         id="feComposite4293"
         in2="result8"
         operator="in"
         result="fbSourceGraphic"
         in="result6" />
      <feColorMatrix
         id="feColorMatrix4295"
         result="fbSourceGraphicAlpha"
         in="fbSourceGraphic"
         values="0 0 0 -1 0 0 0 0 -1 0 0 0 0 -1 0 0 0 0 2 0 " />
      <feGaussianBlur
         id="feGaussianBlur4297"
         result="result0"
         in="fbSourceGraphicAlpha"
         stdDeviation="2" />
      <feSpecularLighting
         id="feSpecularLighting4299"
         specularExponent="25"
         specularConstant="2"
         surfaceScale="-5"
         lighting-color="#ffffff"
         result="result1"
         in="result0">
        <fePointLight
           id="fePointLight4301"
           z="20000"
           y="-10000"
           x="-5000" />
      </feSpecularLighting>
      <feComposite
         id="feComposite4303"
         in2="fbSourceGraphicAlpha"
         operator="in"
         result="result2"
         in="result1" />
      <feComposite
         id="feComposite4305"
         in2="result2"
         k3="2"
         k2="1"
         operator="arithmetic"
         result="result4"
         in="fbSourceGraphic"
         k1="0"
         k4="0" />
      <feComposite
         id="feComposite4307"
         in2="result4"
         operator="in"
         result="result9" />
      <feBlend
         id="feBlend4309"
         in2="result4"
         mode="multiply"
         in="result9"
         result="fbSourceGraphic" />
      <feColorMatrix
         result="fbSourceGraphicAlpha"
         in="fbSourceGraphic"
         values="0 0 0 -1 0 0 0 0 -1 0 0 0 0 -1 0 0 0 0 1 0"
         id="feColorMatrix4311" />
      <feGaussianBlur
         id="feGaussianBlur4313"
         stdDeviation="5"
         result="result91"
         in="fbSourceGraphic" />
      <feComposite
         id="feComposite4315"
         in2="result91"
         in="fbSourceGraphic"
         operator="over" />
    </filter>
  </defs>
  <sodipodi:namedview
     id="base"
     pagecolor="#000000"
     bordercolor="#666666"
     borderopacity="1.0"
     inkscape:pageopacity="1"
     inkscape:pageshadow="2"
     inkscape:zoom="1"
     inkscape:cx="217.96223"
     inkscape:cy="40.659858"
     inkscape:document-units="px"
     inkscape:current-layer="layer1"
     showgrid="false"
     inkscape:window-width="1440"
     inkscape:window-height="851"
     inkscape:window-x="0"
     inkscape:window-y="25"
     inkscape:window-maximized="1"
     showguides="true"
     inkscape:guide-bbox="true"
     inkscape:snap-global="false" />
  <metadata
     id="metadata7">
    <rdf:RDF>
      <cc:Work
         rdf:about="">
        <dc:format>image/svg+xml</dc:format>
        <dc:type
           rdf:resource="http://purl.org/dc/dcmitype/StillImage" />
        <dc:title></dc:title>
      </cc:Work>
    </rdf:RDF>
  </metadata>
  <g
     inkscape:label="Layer 1"
     inkscape:groupmode="layer"
     id="layer1"
     transform="translate(0,-852.36218)">
    <g
       id="g3931">
      <path
         transform="matrix(0.35440325,0,0,0.35440325,225.95887,554.84133)"
         sodipodi:nodetypes="ccccc"
         inkscape:connector-curvature="0"
         d="m 54.22549,939.02852 c 11.855199,0.0507 22.83927,-1.21219 33.125594,-3.52774 m -39.11604,26.35485 c 4.565962,-33.29307 8.496608,-62.34232 21.659953,-79.02542 14.974576,13.37967 19.923096,38.31898 23.940652,76.22024"
         style="fill:none;stroke:#ffffff;stroke-width:4.23246683;stroke-linecap:round;stroke-linejoin:round;stroke-miterlimit:4;stroke-opacity:1;stroke-dasharray:none;filter:url(#filter4283)"
         id="path3032-9" />
      <path
         transform="matrix(0.35440325,0,0,0.35440325,225.95887,554.84133)"
         sodipodi:nodetypes="ccc"
         inkscape:connector-curvature="0"
         id="path3034-0"
         d="m 131.00471,877.7376 c 1.09289,38.22578 -8.07309,43.24291 -3.99849,80.55138 15.1906,-0.53041 29.59937,0.21273 41.94066,0.48914"
         style="fill:none;stroke:#ffffff;stroke-width:4.23246683;stroke-linecap:round;stroke-linejoin:round;stroke-miterlimit:4;stroke-opacity:1;stroke-dasharray:none;filter:url(#filter4283)" />
      <path
         transform="matrix(0.35440325,0,0,0.35440325,225.95887,554.84133)"
         sodipodi:nodetypes="cssccssc"
         inkscape:connector-curvature="0"
         id="path3038-8"
         d="m 231.11128,955.17082 c -5.57212,7.98971 -22.79337,8.99606 -31.41549,3.02783 -10.5493,-7.3023 -7.19401,-34.03198 0.39692,-40.24111 8.32461,-6.80927 21.20741,-9.48863 30.7764,2.86278 m 1.42587,-7.98944 c -1.00291,2.43393 -1.12116,4.75492 -1.02587,6.93603 1.07855,24.68313 2.38061,59.80966 -6.02597,66.37959 -10.27206,8.02788 -33.69213,1.37239 -33.31492,-12.74984"
         style="fill:none;stroke:#ffffff;stroke-width:4.23246683;stroke-linecap:round;stroke-linejoin:round;stroke-miterlimit:4;stroke-opacity:1;stroke-dasharray:none;filter:url(#filter4283)" />
      <path
         transform="matrix(0.35440325,0,0,0.35440325,225.95887,554.84133)"
         sodipodi:nodetypes="cssccc"
         inkscape:connector-curvature="0"
         d="m 242.63922,921.39843 c 5.78963,-11.24265 22.34085,-11.85311 31.10922,-3.1117 5.77291,5.75516 4.57836,26.48426 3.74599,36.14742 -0.25308,2.93811 1.48542,5.19666 1.48542,5.19666 m -29.89736,-87.90074 c -7.43094,9.21207 -6.94666,57.07892 -5.98679,89.09627"
         style="fill:none;stroke:#ffffff;stroke-width:4.23246683;stroke-linecap:round;stroke-linejoin:round;stroke-miterlimit:4;stroke-opacity:1;stroke-dasharray:none;filter:url(#filter4283)"
         id="path3042-5" />
      <path
         transform="matrix(0.35440325,0,0,0.35440325,225.95887,554.84133)"
         sodipodi:nodetypes="cccsc"
         inkscape:connector-curvature="0"
         d="m 283.63132,915.05698 c 13.96681,-0.13959 19.9912,0.11141 35.38241,-1.2424 m -17.09271,-20.10191 c 0,0 -9.66427,61.66557 -0.15557,66.06543 10.58987,4.90015 18.01433,-11.34442 18.01433,-11.34442"
         style="fill:none;stroke:#ffffff;stroke-width:4.23246683;stroke-linecap:round;stroke-linejoin:round;stroke-miterlimit:4;stroke-opacity:1;stroke-dasharray:none;filter:url(#filter4283)"
         id="path3046-1" />
      <path
         transform="matrix(0.35440325,0,0,0.35440325,225.95887,554.84133)"
         sodipodi:nodetypes="cczsc"
         inkscape:connector-curvature="0"
         id="path3048-6"
         d="m 327.87303,935.50125 36.92863,0.21948 c 0,0 0.45042,-23.65706 -15.54813,-24.60207 -15.99855,-0.94503 -21.52679,13.48092 -21.48863,24.02452 0.13477,37.24403 34.48738,29.62753 36.72242,12.32727"
         style="fill:none;stroke:#ffffff;stroke-width:4.23246683;stroke-linecap:round;stroke-linejoin:round;stroke-miterlimit:4;stroke-opacity:1;stroke-dasharray:none;filter:url(#filter4283)" />
      <path
         transform="matrix(0.35440325,0,0,0.35440325,225.95887,554.84133)"
         sodipodi:nodetypes="csccssc"
         inkscape:connector-curvature="0"
         d="m 418.04635,869.74514 c -7.29778,16.55239 -5.39091,48.9433 -6.18803,82.32764 -0.0478,2.00649 0.37573,8.45466 1.71194,10.06767 m -1.40102,-39.94952 c -9.14385,-11.29696 -19.7704,-15.36121 -29.56735,-6.53102 -10.38139,9.35694 -13.45935,33.50923 -0.75257,42.57788 12.70677,9.06868 30.05404,-6.95437 30.05404,-6.95437"
         style="fill:none;stroke:#ffffff;stroke-width:4.23246683;stroke-linecap:round;stroke-linejoin:round;stroke-miterlimit:4;stroke-opacity:1;stroke-dasharray:none;filter:url(#filter4283)"
         id="path3052-2" />
      <path
         transform="matrix(0.35440325,0,0,0.35440325,225.95887,554.84133)"
         sodipodi:nodetypes="czzzzc"
         inkscape:connector-curvature="0"
         id="path3054-0"
         d="m 489.74706,899.40619 c 0.60505,-9.3718 -6.51302,-22.24233 -21.91969,-21.92399 -15.40669,0.31834 -21.68435,7.3098 -21.71774,21.63306 -0.0334,14.32328 42.12575,29.48464 40.95266,42.16578 -1.1731,12.68115 -9.82853,20.77944 -21.41406,19.23745 -11.58552,-1.54199 -23.49045,-15.08024 -22.87599,-23.85897"
         style="fill:none;stroke:#ffffff;stroke-width:4.23246683;stroke-linecap:round;stroke-linejoin:round;stroke-miterlimit:4;stroke-opacity:1;stroke-dasharray:none;filter:url(#filter4283)" />
      <path
         transform="matrix(0.35440325,0,0,0.35440325,225.95887,554.84133)"
         sodipodi:nodetypes="zzz"
         inkscape:connector-curvature="0"
         id="path3058-3"
         d="m 550.78117,911.15938 c -21.90138,-0.85211 -26.82627,47.05353 -0.77114,48.94038 26.05513,1.88694 22.67252,-48.08827 0.77114,-48.94038 z"
         style="fill:none;stroke:#ffffff;stroke-width:4.23246683;stroke-linecap:round;stroke-linejoin:round;stroke-miterlimit:4;stroke-opacity:1;stroke-dasharray:none;filter:url(#filter4283)" />
      <path
         transform="matrix(0.35440325,0,0,0.35440325,225.95887,554.84133)"
         sodipodi:nodetypes="cccc"
         inkscape:connector-curvature="0"
         id="path3060-4"
         d="m 573.44632,911.6807 c 2.72564,5.71459 4.92475,10.27625 2.53328,48.82911 m 1.01139,-35.88915 c 8.03508,-12.78251 20.37313,-20.65422 30.89944,-5.81148"
         style="fill:none;stroke:#ffffff;stroke-width:4.23246683;stroke-linecap:round;stroke-linejoin:round;stroke-miterlimit:4;stroke-opacity:1;stroke-dasharray:none;filter:url(#filter4283)" />
      <path
         transform="matrix(0.35440325,0,0,0.35440325,225.95887,554.84133)"
         sodipodi:nodetypes="ssscc"
         inkscape:connector-curvature="0"
         d="m 183.84656,890.58358 c -5.42272,-0.53976 -7.59054,8.91641 -1.23045,9.72888 6.3601,0.81246 6.65313,-9.18912 1.23045,-9.72888 z m -0.0597,19.43555 c -3.13042,19.63844 -2.70623,36.70122 -1.78291,50.6206"
         style="fill:none;stroke:#ffffff;stroke-width:4.23246683;stroke-linecap:round;stroke-linejoin:round;stroke-miterlimit:4;stroke-opacity:1;stroke-dasharray:none;filter:url(#filter4283)"
         id="path3832-2" />
      <path
         transform="matrix(0.35440325,0,0,0.35440325,225.95887,554.84133)"
         inkscape:connector-curvature="0"
         d="m 491.20302,914.72552 c 14.36443,-2.55012 20.54729,-3.34089 35.21398,-1.24205 m -16.11906,-20.09621 c 0,0 -12.26149,61.64815 -3.00208,66.04685 10.31223,4.89865 18.39027,-11.34134 18.39027,-11.34134"
         style="fill:none;stroke:#ffffff;stroke-width:4.23246683;stroke-linecap:round;stroke-linejoin:round;stroke-miterlimit:4;stroke-opacity:1;stroke-dasharray:none;filter:url(#filter4283)"
         id="path3046-5-9" />
      <path
         transform="matrix(0.35440325,0,0,0.35440325,225.95887,554.84133)"
         sodipodi:nodetypes="cssccssc"
         inkscape:connector-curvature="0"
         id="path3038-2-0"
         d="m 649.72685,949.95734 c -5.56727,7.32166 -19.0469,14.57159 -29.36731,7.52341 -6.06187,-4.13992 -6.01378,-11.75427 -5.69286,-21.98292 0.31914,-10.17178 0.69403,-12.71765 -1.46924,-25.4265 m 38.56752,0.0749 c -1.71231,2.77559 -2.20519,8.10107 -2.15369,10.38704 0.60258,26.74369 1.11043,60.01119 -7.24582,67.17008 -10.18328,8.72426 -31.8747,2.17185 -31.33629,-13.17521"
         style="fill:none;stroke:#ffffff;stroke-width:4.23246683;stroke-linecap:round;stroke-linejoin:round;stroke-miterlimit:4;stroke-opacity:1;stroke-dasharray:none;filter:url(#filter4283)" />
    </g>
    <path
       id="path5185"
       style="fill:none;stroke:#ffffff;stroke-width:2.83012861;stroke-linecap:round;stroke-linejoin:round;stroke-miterlimit:4;stroke-opacity:1;stroke-dasharray:none;filter:url(#filter4283)"
       d="m 287.60103,963.32324 c 0,20.57518 2.36264,30.20408 8.22881,37.18206 7.23824,8.6104 36.58438,7.974 42.66804,5.1812 3.25194,-1.4928 4.81873,-12.05048 6.49778,-16.72608 m -73.84022,-26.89243 c -11.24363,17.06333 -27.65138,30.86913 -45.42306,42.09461 m 7.00974,-51.20146 c 46.87648,-5.36621 49.93819,-2.54351 99.05078,-3.65728 m -15.54334,-40.83939 c -8.60402,13.24377 -12.25463,20.04841 -17.06722,28.03905 M 276.616,897.17467 c 1.46404,11.98529 1.31669,20.73854 3.05757,44.52311 m -42.12783,-27.21052 c 6.51913,6.74696 11.97316,9.60705 22.089,21.47941"
       inkscape:connector-curvature="0"
       sodipodi:nodetypes="cccccccccccccc"
       transform="matrix(1.0600225,0,0,1.0600225,-28.974619,-31.163205)" />
    <path
       id="path3905"
       style="fill:none;stroke:#ffffff;stroke-width:2.83012861;stroke-linecap:round;stroke-linejoin:round;stroke-miterlimit:4;stroke-opacity:1;stroke-dasharray:none;filter:url(#filter4283)"
       d="m 469.76996,950.57937 c 6.27316,2.91496 9.8891,7.14125 13.35478,14.69402 m -63.06775,-15.11094 c -0.8431,5.10571 -3.55823,9.65353 -7.10945,13.53 m 41.08437,-36.61077 c 0,0 8.69846,47.40942 6.27484,64.03462 -5.58221,3.6644 -12.35506,-2.6571 -12.35506,-2.6571 m -10.02026,-59.53084 c -0.17322,26.11239 -4.31208,41.05184 -18.50984,57.93904 m -15.56666,-52.16185 c 26.1269,-6.19011 52.88038,-9.29825 78.82092,-7.81597 m -47.06376,-28.07531 c 5.42354,3.86705 8.79925,8.30881 11.72506,14.88215 m -75.06447,28.57401 16.26346,-2.82843 c -11.5045,34.3849 1.57025,33.4515 2.12131,46.669 0.31269,7.5 -5.74739,16.0278 -12.72792,18.3848 m 12.72792,-18.3848 c 12.9704,26.1739 69.79125,17.1786 98.64141,19.7991 M 377.92953,908.3293 c 5.99972,4.94975 8.28402,9.8995 10.6066,14.84925"
       inkscape:connector-curvature="0"
       transform="matrix(1.0600225,0,0,1.0600225,-28.974619,-31.163205)" />
  </g>
</svg>
